<svg xmlns="http://www.w3.org/2000/svg" viewBox="0 0 975.7 173.04"><g id="Layer_2" data-name="Layer 2"><g id="Layer_1-2" data-name="Layer 1"><path d="M975.28,160a5.2,5.2,0,0,0-1.92-3.69,14.48,14.48,0,0,0-3.66-2.4,39.17,39.17,0,0,0-8.4-2.62A87.62,87.62,0,0,0,943.75,150a80.36,80.36,0,0,0-17.34,2.14,38.7,38.7,0,0,0-8,2.89,13.63,13.63,0,0,0-3.27,2.26,3,3,0,0,0,.12,5.19,13.42,13.42,0,0,0,3.3,2.07,38.21,38.21,0,0,0,8,2.52,94.54,94.54,0,0,0,17.18,1.78,108.9,108.9,0,0,0,17.39-.85,38.19,38.19,0,0,0,8.42-2.24,14.44,14.44,0,0,0,3.7-2.22A5.14,5.14,0,0,0,975.28,160Zm.42,0a5.65,5.65,0,0,1-2,4.06,16.68,16.68,0,0,1-3.68,2.68,42.29,42.29,0,0,1-8.37,3.49,66.67,66.67,0,0,1-17.9,2.86c-3,0-6.07-.09-9.1-.38a71.49,71.49,0,0,1-9-1.56,41.77,41.77,0,0,1-8.76-3.2,17,17,0,0,1-4.07-2.84,7,7,0,0,1-2.47-5.11,7,7,0,0,1,2.59-5,16.85,16.85,0,0,1,4.1-2.65,42.48,42.48,0,0,1,8.77-2.83,82.94,82.94,0,0,1,18-1.58,77.36,77.36,0,0,1,17.74,2.48,41.62,41.62,0,0,1,8.39,3.1A16.11,16.11,0,0,1,973.6,156,5.59,5.59,0,0,1,975.7,160Z"/><path d="M948.23,158a2.45,2.45,0,0,0-.87-1.34,5.09,5.09,0,0,0-3.18-.81c-2,0-3.44.58-4.2,1.75a4.51,4.51,0,0,0-.59,2.45,4.22,4.22,0,0,0,.59,2.35c.73,1.1,2.09,1.65,4.1,1.65a5.3,5.3,0,0,0,3-.65,2.66,2.66,0,0,0,1.09-1.71h6.19a4.77,4.77,0,0,1-2,3q-2.85,2.28-8.45,2.28c-3.74,0-6.48-.64-8.24-1.9a5.84,5.84,0,0,1-2.64-4.93,6,6,0,0,1,2.91-5.32q2.92-1.91,8-1.9a19.32,19.32,0,0,1,7.15,1.12,5,5,0,0,1,3.29,4Z"/><path d="M403.52,1.58v0H339.44a.61.61,0,0,0-.19,1.19c6.75,2.19,18.33,7.82,15.12,20.19h0L315.71,171.73a.61.61,0,0,0,.59.76H363c5.71,0,10.57-2.56,11.46-6l40-156.64C415.48,5.59,410.36,1.79,403.52,1.58Z"/><path d="M497.49,1.58v0H433.4a.61.61,0,0,0-.19,1.19c6.75,2.19,18.33,7.82,15.12,20.19h0L409.67,171.73a.61.61,0,0,0,.59.76h46.68c5.71,0,10.57-2.56,11.46-6l40-156.64C509.44,5.59,504.32,1.79,497.49,1.58Z"/><path d="M689.61,1.58v0H625.53a.61.61,0,0,0-.19,1.19c6.75,2.19,18.33,7.82,15.12,20.19h0L601.8,171.73a.61.61,0,0,0,.59.76h46.68c5.71,0,10.57-2.56,11.46-6l40-156.64C701.57,5.59,696.44,1.79,689.61,1.58Z"/><path d="M117.54,1.58v0H53.46a.61.61,0,0,0-.2,1.19C60,4.92,71.59,10.55,68.38,22.92h0L29.73,171.73a.61.61,0,0,0,.59.76H77c5.71,0,10.57-2.56,11.45-6l40-156.64C129.5,5.59,124.37,1.79,117.54,1.58Z"/><path d="M1.05,128.54c0,5.33,3,10.19,6.69,14a54.9,54.9,0,0,0,13.18,9.22c9.63,4.92,20.06,8.07,30.59,10.43,21.15,4.52,42.82,5.88,64.34,5.63s43.08-2.58,63.79-7.87c10.3-2.7,20.45-6.15,29.6-11.09A52.84,52.84,0,0,0,221.46,140c3.34-3.46,5.63-7.51,5.53-11.47s-2.44-7.86-5.83-11.18A52.79,52.79,0,0,0,208.85,109c-9.19-4.62-19.35-7.73-29.64-10.11-20.65-4.66-42-6.62-63.36-7S73,92.66,51.92,96.56c-10.51,2-21,4.87-30.63,9.47A54.27,54.27,0,0,0,8,114.82C4.24,118.47,1.14,123.2,1.05,128.54Zm-1,0a17.44,17.44,0,0,1,2-8.11,28.42,28.42,0,0,1,4.88-6.76,59.83,59.83,0,0,1,13.23-9.93,149.13,149.13,0,0,1,30.5-12.61,241.47,241.47,0,0,1,65.27-9.69c22.05-.25,44.25,1.82,65.84,7.38,10.76,2.88,21.42,6.52,31.49,12a61.11,61.11,0,0,1,14.21,10.34,32.31,32.31,0,0,1,5.57,7.63,20.22,20.22,0,0,1-.19,19.46,31.32,31.32,0,0,1-5.68,7.42,60.06,60.06,0,0,1-14.3,9.89c-10.12,5.14-20.79,8.44-31.53,11-21.53,4.94-43.53,6.7-65.41,6.5A265.51,265.51,0,0,1,51,164.29a148.17,148.17,0,0,1-30.55-11.65,58.32,58.32,0,0,1-13.33-9.5,28.1,28.1,0,0,1-5-6.58A17.36,17.36,0,0,1,0,128.54Z"/><ellipse cx="159.55" cy="87.41" rx="38.18" ry="22.93"/><path d="M159.55,111.39c-21.62,0-39.22-10.76-39.22-24s17.6-24,39.22-24,39.22,10.75,39.22,24S181.18,111.39,159.55,111.39Zm0-45.86c-20.47,0-37.13,9.82-37.13,21.88s16.66,21.89,37.13,21.89,37.13-9.82,37.13-21.89S180,65.53,159.55,65.53Z"/><ellipse cx="264.59" cy="87.41" rx="38.18" ry="22.93"/><ellipse cx="555.15" cy="87.41" rx="38.18" ry="22.93"/><path d="M485.32,72.63a24.85,24.85,0,0,1-5.35,9.6c-3.54,4.17-8.1,7.38-12.77,10.22-9.51,5.52-20,9.08-30.64,11.83a222.86,222.86,0,0,1-32.46,5.35,283.58,283.58,0,0,1-32.84,1.26c-21.87-.33-43.82-2.85-64.69-8.83-10.39-3-20.59-6.89-29.56-12.42a49.06,49.06,0,0,1-11.77-9.72c-3.23-3.73-5.14-8.07-5.12-12.35s2.15-8.49,5.44-12.07a48.91,48.91,0,0,1,11.88-9.28c9-5.21,19.24-8.75,29.6-11.43A222.08,222.08,0,0,1,338.83,29a313.2,313.2,0,0,1,32.43-2.1q11.1-.18,22.22.37A44.22,44.22,0,0,1,403,19a237,237,0,0,0-31.71-2.59,233.58,233.58,0,0,0-67,8.4C293.4,28,282.64,32.13,272.66,38.28a57.61,57.61,0,0,0-13.78,11.46c-4,4.62-7.17,11-7.12,17.83s3.36,13.07,7.44,17.55a56.73,56.73,0,0,0,13.9,11c10,5.83,20.79,9.59,31.66,12.47,21.8,5.68,44.22,7.69,66.5,7.5,22.27-.47,44.58-3.24,65.89-9.71,10.64-3.16,21.1-7.24,30.58-13.07a54.48,54.48,0,0,0,12.91-10.52A25.43,25.43,0,0,0,486.54,72Z"/><path d="M643.71,7.52a159.24,159.24,0,0,1-5.2,21,158.52,158.52,0,0,1-10.92,27.3C622.82,64.68,617,73.43,607.29,81A61.11,61.11,0,0,1,589,91a61.7,61.7,0,0,1-13.12,3,63.85,63.85,0,0,1-16.39-.28,63.4,63.4,0,0,1-15.77-4.63,62.45,62.45,0,0,1-11.68-6.82,60.86,60.86,0,0,1-14.51-15c-7-10.18-9.95-20.27-11.94-30.17a207.26,207.26,0,0,1-2.91-29.61H482.12a95.22,95.22,0,0,0,8.62,28.58,130.18,130.18,0,0,0,21.13,31.33,101,101,0,0,0,17.59,15.34,76.17,76.17,0,0,0,12.75,7,70.39,70.39,0,0,0,35,5.39,75.77,75.77,0,0,0,14.33-2.86A100.52,100.52,0,0,0,613,83a132.84,132.84,0,0,0,29.69-23.54,102.92,102.92,0,0,0,10.49-13c1.56-2.22,2.92-4.48,4.34-6.73,1.2-2.29,2.53-4.56,3.56-6.88a113.18,113.18,0,0,0,8.24-25.3Z"/><path d="M263.4,47.54c.05,5.7-3,10.87-6.71,14.89a60.21,60.21,0,0,1-13,10.21A139.08,139.08,0,0,1,213.2,85.7c-21.2,6.52-43.5,8.85-65.54,8.4a290.13,290.13,0,0,1-32.94-2.93c-5.44-.82-10.87-1.74-16.24-2.92s-10.74-2.36-16-3.78A152.31,152.31,0,0,1,51.49,73a71.65,71.65,0,0,1-7.15-4.34,47,47,0,0,1-6.6-5.33,28.73,28.73,0,0,1-5.28-7,19.83,19.83,0,0,1-2.41-8.78,20.3,20.3,0,0,1,1.93-9,29.74,29.74,0,0,1,5-7.45A56.62,56.62,0,0,1,50.56,20.44C60.42,14.76,71.05,11,81.79,8.12A254.72,254.72,0,0,1,147.66,0c22.1.24,44.37,2.62,65.57,9.26a141.23,141.23,0,0,1,30.46,13.12,59.8,59.8,0,0,1,13,10.24C260.45,36.65,263.47,41.84,263.4,47.54Zm-.83,0c-.08-5.39-3-10.31-6.74-14.06a51.57,51.57,0,0,0-13.24-9.1c-9.68-4.78-20.19-7.62-30.71-9.78a313.78,313.78,0,0,0-32-4.37c-10.72-.91-21.48-1.43-32.24-1.31s-21.51.61-32.2,1.64a233.28,233.28,0,0,0-31.72,5.18A138.41,138.41,0,0,0,53.8,26.32,55.29,55.29,0,0,0,41.11,35c-3.59,3.47-6.29,7.79-6.49,12.52S36.89,57,40.35,60.79a50.36,50.36,0,0,0,12.51,9.67c9.36,5.28,19.73,8.8,30.24,11.38,5.27,1.25,10.61,2.23,16,3s10.77,1.26,16.17,1.67a318.93,318.93,0,0,0,32.42.6c21.58-.57,43.08-2.41,64.25-6.53q7.92-1.59,15.66-4a98.63,98.63,0,0,0,15.05-5.88,51.47,51.47,0,0,0,13.24-9.12C259.62,57.87,262.51,52.93,262.57,47.54Z"/><path d="M784,1.58v0H719.94a.61.61,0,0,0-.2,1.19c6.75,2.19,18.33,7.82,15.12,20.19h0L696.21,171.73a.61.61,0,0,0,.59.76h46.68c5.71,0,10.57-2.56,11.45-6l40-156.64C796,5.59,790.85,1.79,784,1.58Z"/><path d="M667.53,128.54c0,5.33,3,10.19,6.69,14a55.09,55.09,0,0,0,13.18,9.22c9.63,4.92,20.07,8.07,30.59,10.43,21.15,4.52,42.82,5.88,64.34,5.63s43.08-2.58,63.79-7.87c10.3-2.7,20.45-6.15,29.6-11.09A52.62,52.62,0,0,0,887.94,140c3.34-3.46,5.63-7.51,5.53-11.47s-2.44-7.86-5.83-11.18A52.79,52.79,0,0,0,875.33,109c-9.19-4.62-19.35-7.73-29.63-10.11-20.66-4.66-42-6.62-63.37-7s-42.83.77-63.93,4.67c-10.51,2-20.95,4.87-30.63,9.47a54,54,0,0,0-13.29,8.79C670.72,118.47,667.62,123.2,667.53,128.54Zm-1,0a17.44,17.44,0,0,1,2-8.11,28.42,28.42,0,0,1,4.88-6.76,59.83,59.83,0,0,1,13.23-9.93,149.13,149.13,0,0,1,30.5-12.61,241.47,241.47,0,0,1,65.27-9.69c22.06-.25,44.25,1.82,65.84,7.38,10.76,2.88,21.42,6.52,31.5,12a61.06,61.06,0,0,1,14.2,10.34,32.31,32.31,0,0,1,5.57,7.63,20.22,20.22,0,0,1-.19,19.46,31.32,31.32,0,0,1-5.68,7.42,60.06,60.06,0,0,1-14.3,9.89c-10.12,5.14-20.79,8.44-31.53,11-21.53,4.94-43.53,6.7-65.41,6.5a265.51,265.51,0,0,1-64.86-8.73,147.87,147.87,0,0,1-30.54-11.65,58.16,58.16,0,0,1-13.34-9.5,28.1,28.1,0,0,1-5-6.58A17.36,17.36,0,0,1,666.48,128.54Z"/><ellipse cx="826.03" cy="87.41" rx="38.18" ry="22.93"/><path d="M826,111.39c-21.62,0-39.22-10.76-39.22-24s17.6-24,39.22-24,39.22,10.75,39.22,24S847.66,111.39,826,111.39Zm0-45.86c-20.47,0-37.13,9.82-37.13,21.88S805.56,109.3,826,109.3s37.13-9.82,37.13-21.89S846.51,65.53,826,65.53Z"/><path d="M929.88,47.54c0,5.7-3,10.87-6.71,14.89a60.21,60.21,0,0,1-13,10.21A139.08,139.08,0,0,1,879.68,85.7c-21.2,6.52-43.5,8.85-65.54,8.4a290,290,0,0,1-32.93-2.93c-5.45-.82-10.88-1.74-16.25-2.92s-10.74-2.36-16.05-3.78A152.31,152.31,0,0,1,718,73a71.65,71.65,0,0,1-7.15-4.34,47,47,0,0,1-6.6-5.33,28.73,28.73,0,0,1-5.28-7,19.83,19.83,0,0,1-2.41-8.78,20.17,20.17,0,0,1,1.94-9,29.44,29.44,0,0,1,5-7.45A56.62,56.62,0,0,1,717,20.44c9.86-5.68,20.49-9.42,31.23-12.32A254.72,254.72,0,0,1,814.14,0c22.1.24,44.37,2.62,65.58,9.26a141.36,141.36,0,0,1,30.45,13.12,59.8,59.8,0,0,1,13,10.24C926.93,36.65,930,41.84,929.88,47.54Zm-.83,0c-.08-5.39-3-10.31-6.74-14.06a51.57,51.57,0,0,0-13.24-9.1c-9.68-4.78-20.18-7.62-30.71-9.78a313.78,313.78,0,0,0-32-4.37c-10.72-.91-21.48-1.43-32.24-1.31s-21.51.61-32.2,1.64a233.28,233.28,0,0,0-31.72,5.18,138.41,138.41,0,0,0-29.94,10.58A55.29,55.29,0,0,0,707.59,35c-3.59,3.47-6.29,7.79-6.48,12.52s2.26,9.42,5.72,13.25a50.36,50.36,0,0,0,12.51,9.67c9.36,5.28,19.73,8.8,30.24,11.38,5.27,1.25,10.61,2.23,16,3s10.77,1.26,16.17,1.67a318.93,318.93,0,0,0,32.42.6c21.58-.57,43.08-2.41,64.25-6.53q7.92-1.59,15.67-4a99,99,0,0,0,15.05-5.88,51.42,51.42,0,0,0,13.23-9.12C926.1,57.87,929,52.93,929.05,47.54Z"/></g></g></svg>