<svg xmlns="http://www.w3.org/2000/svg" viewBox="0 0 240.86 187.27"><g id="Layer_2" data-name="Layer 2"><g id="Layer_1-2" data-name="Layer 1"><path d="M240.84,75.23c-.39-10.43-41.53-12.74-51.65-23.17l5.25,5.41q13.42,13.85,2.78,24.83t-24.08-2.86L167.89,74l21.3-22L182.48,0,122.6,61.76l-.17-35.33a80,80,0,0,0-17.8-14.15,44.83,44.83,0,0,0-18-5.94A38.3,38.3,0,0,0,69,8.9,46.42,46.42,0,0,0,52.55,20.26a52.41,52.41,0,0,0-8.17,10.83,32.86,32.86,0,0,0-4,12.11,34,34,0,0,0,1.09,13.32A50.85,50.85,0,0,0,48.32,71a34.65,34.65,0,0,0-18.39.15q-8.46,2.56-16.78,11.14Q-.56,96.38,0,112c.39,10.43,41.54,12.74,51.65,23.17l-5.25-5.42Q33,115.95,43.65,105t24.07,2.85L73,113.24l-21.3,22,6.71,52.06,60.07-61.94,0,35.51A79.61,79.61,0,0,0,136.23,175a44.75,44.75,0,0,0,18,6,38.28,38.28,0,0,0,17.65-2.56A46.67,46.67,0,0,0,188.32,167a52.77,52.77,0,0,0,8.17-10.83,33,33,0,0,0,4-12.11,34.2,34.2,0,0,0-1.09-13.32,51.45,51.45,0,0,0-6.86-14.45,34.52,34.52,0,0,0,18.38-.14q8.46-2.56,16.78-11.14Q241.42,90.88,240.84,75.23Zm-146.57,16L88,84.8Q77.2,73.67,75.31,66t4.23-14q6.12-6.31,13.57-4.36t18.23,13.09l6.27,6.47Zm67.06,44q-6.14,6.33-13.57,4.37t-18.24-13.09l-6.27-6.47L146.59,96l6.28,6.47q10.78,11.13,12.69,18.81T161.33,135.26Z"/></g></g></svg>