<svg xmlns="http://www.w3.org/2000/svg" viewBox="0 0 554.5 216.09"><g id="Layer_2" data-name="Layer 2"><g id="Layer_1-2" data-name="Layer 1"><path d="M543.19,94c-6.63-6.17-14.85-8.38-21.51-9,9.92-14.63,16.45-32.53,15.45-47.46C536.27,24.8,529.33,3,492.48.47c-58.09-4.06-79.78,19-87.26,31.68-7.12-11.39-16.12-19.11-26.83-21-16.19-2.86-29.75,0-40.29,8.4a49.11,49.11,0,0,0-12,14.48A42,42,0,0,0,319,19.77C313,12.27,304.65,8.09,294.12,7.35c-21.51-1.52-33.1,3.72-39.29,9.2C250,8.36,241.3,3.7,229,2.72c-40.23-3.23-64.5,24.88-75.43,42-7.09-21.3-26.38-36.55-53.29-41.56C50-6.17,18.35,9,6.49,24.91-.81,34.68-2,46.14,3.19,56.36c3.35,6.55,7.21,11.19,11.56,13.86-11.91,31.32-7.21,69.54-.9,96.75A63.16,63.16,0,0,0,42.41,206.7a61.87,61.87,0,0,0,47.38,7.64c34.39-8.31,65.3-32.45,79.68-60.23A86.65,86.65,0,0,0,188,155.43c-5.46,11.65-11.56,29.86-4.6,43.28,4.84,9.32,14.8,14.42,29.62,15.16,1.65.08,3.26.12,4.82.12,11.14,0,20.14-2.08,26.92-6.2a28.12,28.12,0,0,0,6,.44,29.38,29.38,0,0,0,3,.14,41.69,41.69,0,0,0,25.64-9,49.6,49.6,0,0,0,12.12-14.22,23.15,23.15,0,0,0,9.62,5,23.76,23.76,0,0,0,5.66.68,32.21,32.21,0,0,0,14.82-4s0,0,0,.07c6.6,12.82,22.29,20,46.64,21.34.82,0,1.64.06,2.44.06,14.11,0,26.07-6.86,35.09-19.51,11.21,17.31,27.91,26.41,48.32,26.41a77,77,0,0,0,13.9-1.31c41.12-7.52,82-45.38,85.87-79.45C556,116.14,552.37,102.57,543.19,94ZM87.24,203.78a51.2,51.2,0,0,1-39.12-6.33,52.34,52.34,0,0,1-23.69-32.94c-6-26.07-10.6-62.67.94-91.62,9.27-.63,15.78-8.3,16.55-9.24a5.43,5.43,0,0,0-8.43-6.86c-1.3,1.56-5.61,5.57-9.78,5.27-4.64-.33-8.45-6-10.83-10.64-4.24-8.3-1.08-15.46,2.31-20C26,17,55.86,6,98.3,13.86c26.24,4.88,43.28,20,46.76,41.59s-7.63,43.25-27.6,54.27a5.43,5.43,0,1,0,5.24,9.51,66.31,66.31,0,0,0,22.24-19.88c4-.14,12.2.31,17.35,5.7,4.92,5.15,6.24,14,3.91,26.15C160.94,158.77,130,193.45,87.24,203.78ZM213.58,203c-10.68-.53-17.58-3.66-20.51-9.3-6.43-12.37,5.15-35.65,10.15-43.58a5.44,5.44,0,0,0-7.72-7.35c-3.44,2.42-13.77,2.11-21.53,1a71.62,71.62,0,0,0,2.91-10.57c3-15.9.74-27.94-6.8-35.77-5.69-5.9-13.14-8-19.08-8.72a61.89,61.89,0,0,0,5.53-26.88c.06-.12.14-.23.19-.36.89-2.12,22.26-51.92,71.42-48,9.15.73,15,3.84,17.86,9.49a20.71,20.71,0,0,1,1.91,6.26.13.13,0,0,0,0,.06C250.73,48,235.28,78.55,228.27,90a5.43,5.43,0,0,0,8.52,6.64c4.53-4.65,19.59-17.39,29.08-15,4.12,1,7.26,5.29,9.31,12.63,2.37,8.47,1.66,15.61-2.19,21.82-8.67,14-30.33,18.29-30.54,18.33a5.44,5.44,0,0,0-3.79,7.89c4.89,9.18,15.6,36.1,6.63,50.24C240.38,200.29,229.71,203.82,213.58,203Zm155.34-5.71c-19.92-1.09-32.91-6.43-37.57-15.43-6.78-13.12,4.5-31.35,4.61-31.52a5.43,5.43,0,1,0-9.17-5.82c-.5.77-9.91,15.86-8.27,31.51-5.56,3.32-10.48,4.52-14.64,3.55a13.07,13.07,0,0,1-7.41-5A108.08,108.08,0,0,0,302.31,147a5.43,5.43,0,0,0-10.82-1c-1.95,21.35-8.21,36.39-18.61,44.69a30.73,30.73,0,0,1-17.9,6.82c10.1-17.21,1.25-42.56-3.81-54.15,8.58-2.7,23.23-8.93,31-21.48,5.49-8.83,6.65-19.1,3.44-30.53S276.7,73.17,268.53,71.1c-6.62-1.67-13.63.21-19.89,3.32,6.05-13.55,11.91-31.11,10.16-45.61,1.24-2.67,7.68-12.5,34.56-10.62,7.45.52,13,3.24,17.07,8.31,7.78,9.79,7.77,25.69,7.21,33.41-.41,2.92-.51,4.81-.53,5.11a5.44,5.44,0,0,0,10.8,1.12c0-.29.34-2.19.56-5.13,1.16-7.77,4.88-23.74,16.42-33,8-6.4,18.63-8.47,31.62-6.18C403,26.54,417.71,88.13,412.19,136,410.48,150.85,402.29,199.21,368.92,197.3Zm174.22-64.15c-3.23,28.8-41.39,63.45-77,70-17,3.11-40.05,1.21-54-25.13,5.28-11,9-24.65,10.85-40.74,3.7-32.07-.5-67.7-11.47-93a5.13,5.13,0,0,0,.62-1.34c.42-1.48,11.21-36.38,79.59-31.63,21.83,1.53,33.46,10.6,34.56,27,1.08,16-8.07,35.29-19.49,48.47a5.57,5.57,0,0,0-.51.58c-6.82,7.71-14.38,13.24-21,14.62a5.44,5.44,0,0,0,1.09,10.76,5.24,5.24,0,0,0,1.11-.12c8.76-1.81,17.8-8.1,25.73-16.76,4.18-.4,15.28-.7,22.67,6.22C542.33,108.1,544.78,118.57,543.14,133.15Z"/><path d="M143.21,142.61a4.68,4.68,0,0,1-.64,0,5.43,5.43,0,0,1-4.76-6,43.11,43.11,0,0,0-1.65-17.77,5.44,5.44,0,1,1,10.38-3.23,54.15,54.15,0,0,1,2.06,22.27A5.43,5.43,0,0,1,143.21,142.61Z"/><path d="M122.26,72.09a5.44,5.44,0,0,1-5.41-5A86.5,86.5,0,0,0,113,47.72a5.43,5.43,0,1,1,10.33-3.35,97.41,97.41,0,0,1,4.39,21.83,5.44,5.44,0,0,1-5,5.87Z"/><path d="M198.15,95.48a4.71,4.71,0,0,1-.74-.06,5.42,5.42,0,0,1-4.65-6.11,90.58,90.58,0,0,1,13.07-35.85,5.43,5.43,0,1,1,9.19,5.8,79.59,79.59,0,0,0-11.49,31.52A5.44,5.44,0,0,1,198.15,95.48Z"/><path d="M511.59,154.36l-.42,0a5.43,5.43,0,0,1-5-5.83,43.26,43.26,0,0,0-2.39-17.69A5.44,5.44,0,0,1,514,127.16a54.07,54.07,0,0,1,3,22.17A5.43,5.43,0,0,1,511.59,154.36Z"/></g></g></svg>